<svg width="396" height="191.73693097803906" viewBox="0 0 150 72.62762537046933" xmlns="http://www.w3.org/2000/svg"  class="looka-1j8o68f"><defs id="SvgjsDefs2130"></defs><g id="SvgjsG2131" featurekey="nameFeature-0" transform="matrix(1.5190796852111816,0,0,1.5190796852111816,0.0000028974146021814982,-16.284531966711718)" fill="#ffffff"><path d="M3.12 15.079999999999998 l0 15.56 l27.64 0 l0 9.36 l-30.76 0 l0 -3.12 l27.68 0 l0 -3.12 l-27.68 0 l0 -21.8 l9.36 0 l0 15.6 l-3.12 0 l0 -12.48 l-3.12 0 z M64.792 11.96 l0 9.36 l-21.24 0 l0 3.12 l15.76 0 l0 3.12 l-18.88 0 l0 -9.36 l21.24 0 l0 -3.12 l-24.36 0 l0 21.8 l24.36 0 l0 -3.12 l-21.24 0 l0 -3.12 l24.36 0 l0 9.36 l-30.6 0 l0 -28.04 l30.6 0 z M83.504 10.719999999999999 c8.4 0 15.24 6.84 15.24 15.28 s-6.84 15.24 -15.24 15.24 c-8.44 0 -15.28 -6.8 -15.28 -15.24 s6.84 -15.28 15.28 -15.28 z M83.504 38.16 c6.72 0 12.16 -5.44 12.16 -12.16 s-5.44 -12.2 -12.16 -12.2 c-6.76 0 -12.2 5.48 -12.2 12.2 s5.44 12.16 12.2 12.16 z M83.504 16.88 c5 0 9.08 4.12 9.08 9.12 s-4.08 9.08 -9.08 9.08 s-9.12 -4.08 -9.12 -9.08 s4.12 -9.12 9.12 -9.12 z M83.504 32 c3.32 0 6 -2.68 6 -6 c0 -3.36 -2.68 -6.04 -6 -6.04 c-3.36 0 -6.04 2.68 -6.04 6.04 c0 3.32 2.68 6 6.04 6 z"></path></g><g id="SvgjsG2132" featurekey="sloganFeature-0" transform="matrix(0.4596134126186371,0,0,0.4596134126186371,14.218657075841541,63.31585741121009)" fill="#ffffff"><path d="M10.8 6 c0.18 0 0.3 0.12 0.3 0.3 l0 1.1 c0 0.18 -0.12 0.3 -0.3 0.3 l-7.23 0 l0 4.28 l6.77 0 c0.18 0 0.3 0.12 0.3 0.3 l0 1.1 c0 0.18 -0.12 0.3 -0.3 0.3 l-6.77 0 l0 6.02 c0 0.18 -0.12 0.3 -0.3 0.3 l-1.27 0 c-0.18 0 -0.3 -0.12 -0.3 -0.3 l0 -13.4 c0 -0.18 0.12 -0.3 0.3 -0.3 l8.8 0 z M22.2705 14.57 l2.68 5.08 c0.11 0.21 0.01 0.35 -0.22 0.35 l-1.32 0 c-0.16 0 -0.27 -0.07 -0.35 -0.22 l-2.58 -4.99 l-0.29 0 l-3.39 0 l0 4.91 c0 0.18 -0.12 0.3 -0.3 0.3 l-1.27 0 c-0.18 0 -0.3 -0.12 -0.3 -0.3 l0 -13.4 c0 -0.18 0.12 -0.3 0.3 -0.3 l4.96 0 c3.69 0 5.04 1.56 5.04 4.39 c0 2.22 -0.83 3.66 -2.96 4.18 z M16.8005 7.699999999999999 l0 5.39 l3.52 0 c1.86 0 3.1 -0.5 3.1 -2.7 c0 -2.19 -1.24 -2.69 -3.1 -2.69 l-3.52 0 z M35.580999999999996 20.26 c-3.96 0 -7.17 -3.2 -7.17 -7.2 c0 -4.02 3.21 -7.22 7.17 -7.22 c3.95 0 7.16 3.2 7.16 7.22 c0 4 -3.21 7.2 -7.16 7.2 z M35.580999999999996 18.49 c2.97 0 5.32 -2.4 5.32 -5.43 c0 -3.05 -2.35 -5.45 -5.32 -5.45 c-2.98 0 -5.33 2.4 -5.33 5.45 c0 3.03 2.35 5.43 5.33 5.43 z M56.881499999999996 6 c0.18 0 0.3 0.12 0.3 0.3 l0 13.4 c0 0.16 -0.1 0.28 -0.25 0.3 l-1.64 0 c-0.16 0 -0.28 -0.06 -0.36 -0.2 l-6.44 -11.04 l0 10.94 c0 0.18 -0.12 0.3 -0.3 0.3 l-1.27 0 c-0.18 0 -0.3 -0.12 -0.3 -0.3 l0 -13.4 c0 -0.17 0.1 -0.28 0.26 -0.3 l1.63 0 c0.16 0 0.28 0.06 0.36 0.2 l6.44 11.03 l0 -10.93 c0 -0.18 0.12 -0.3 0.3 -0.3 l1.27 0 z M71.262 6 c0.18 0 0.3 0.12 0.3 0.3 l0 1.1 c0 0.18 -0.12 0.3 -0.3 0.3 l-4.19 0 l0 12 c0 0.18 -0.12 0.3 -0.3 0.3 l-1.27 0 c-0.18 0 -0.3 -0.12 -0.3 -0.3 l0 -12 l-4.19 0 c-0.18 0 -0.3 -0.12 -0.3 -0.3 l0 -1.1 c0 -0.18 0.12 -0.3 0.3 -0.3 l10.25 0 z M84.49249999999999 13.61 c0.18 0 0.3 0.12 0.3 0.3 l0 0.93 c0 0.18 -0.12 0.3 -0.3 0.3 l-9.4 0 c-0.18 0 -0.3 -0.12 -0.3 -0.3 l0 -0.93 c0 -0.18 0.12 -0.3 0.3 -0.3 l9.4 0 z M97.62299999999999 18.3 c0.18 0 0.3 0.12 0.3 0.3 l0 1.1 c0 0.18 -0.12 0.3 -0.3 0.3 l-8.55 0 c-0.18 0 -0.3 -0.12 -0.3 -0.3 l0 -13.4 c0 -0.18 0.12 -0.3 0.3 -0.3 l8.53 0 c0.18 0 0.3 0.12 0.3 0.3 l0 1.1 c0 0.18 -0.12 0.3 -0.3 0.3 l-6.96 0 l0 4.15 l6.43 0 c0.18 0 0.3 0.12 0.3 0.3 l0 1.1 c0 0.18 -0.12 0.3 -0.3 0.3 l-6.43 0 l0 4.75 l6.98 0 z M112.11349999999999 6 c0.18 0 0.3 0.12 0.3 0.3 l0 13.4 c0 0.16 -0.1 0.28 -0.25 0.3 l-1.64 0 c-0.16 0 -0.28 -0.06 -0.36 -0.2 l-6.44 -11.04 l0 10.94 c0 0.18 -0.12 0.3 -0.3 0.3 l-1.27 0 c-0.18 0 -0.3 -0.12 -0.3 -0.3 l0 -13.4 c0 -0.17 0.1 -0.28 0.26 -0.3 l1.63 0 c0.16 0 0.28 0.06 0.36 0.2 l6.44 11.03 l0 -10.93 c0 -0.18 0.12 -0.3 0.3 -0.3 l1.27 0 z M120.344 6 c4.85 0 7.33 3.05 7.33 7 c0 3.94 -2.48 7 -7.33 7 l-3.35 0 c-0.18 0 -0.3 -0.12 -0.3 -0.3 l0 -13.4 c0 -0.18 0.12 -0.3 0.3 -0.3 l3.35 0 z M120.344 18.3 c3.63 0 5.43 -2.01 5.43 -5.3 c0 -3.3 -1.8 -5.3 -5.43 -5.3 l-1.78 0 l0 10.6 l1.78 0 z M143.535 6 c4.85 0 7.33 3.05 7.33 7 c0 3.94 -2.48 7 -7.33 7 l-3.35 0 c-0.18 0 -0.3 -0.12 -0.3 -0.3 l0 -13.4 c0 -0.18 0.12 -0.3 0.3 -0.3 l3.35 0 z M143.535 18.3 c3.63 0 5.43 -2.01 5.43 -5.3 c0 -3.3 -1.8 -5.3 -5.43 -5.3 l-1.78 0 l0 10.6 l1.78 0 z M163.24550000000002 18.3 c0.18 0 0.3 0.12 0.3 0.3 l0 1.1 c0 0.18 -0.12 0.3 -0.3 0.3 l-8.55 0 c-0.18 0 -0.3 -0.12 -0.3 -0.3 l0 -13.4 c0 -0.18 0.12 -0.3 0.3 -0.3 l8.53 0 c0.18 0 0.3 0.12 0.3 0.3 l0 1.1 c0 0.18 -0.12 0.3 -0.3 0.3 l-6.96 0 l0 4.15 l6.43 0 c0.18 0 0.3 0.12 0.3 0.3 l0 1.1 c0 0.18 -0.12 0.3 -0.3 0.3 l-6.43 0 l0 4.75 l6.98 0 z M176.82600000000002 6.24 c0.07 -0.18 0.18 -0.24 0.34 -0.24 l1.29 0 c0.22 0 0.32 0.14 0.24 0.34 l-5.08 13.42 c-0.06 0.16 -0.2 0.24 -0.36 0.24 l-1.26 0 c-0.16 0 -0.3 -0.08 -0.36 -0.24 l-5.08 -13.42 c-0.08 -0.2 0.02 -0.34 0.24 -0.34 l1.29 0 c0.16 0 0.27 0.06 0.34 0.24 l4.2 11.42 z M190.90650000000002 18.3 c0.18 0 0.3 0.12 0.3 0.3 l0 1.1 c0 0.18 -0.12 0.3 -0.3 0.3 l-8.55 0 c-0.18 0 -0.3 -0.12 -0.3 -0.3 l0 -13.4 c0 -0.18 0.12 -0.3 0.3 -0.3 l8.53 0 c0.18 0 0.3 0.12 0.3 0.3 l0 1.1 c0 0.18 -0.12 0.3 -0.3 0.3 l-6.96 0 l0 4.15 l6.43 0 c0.18 0 0.3 0.12 0.3 0.3 l0 1.1 c0 0.18 -0.12 0.3 -0.3 0.3 l-6.43 0 l0 4.75 l6.98 0 z M203.887 18.3 c0.18 0 0.3 0.12 0.3 0.3 l0 1.1 c0 0.18 -0.12 0.3 -0.3 0.3 l-8.45 0 c-0.18 0 -0.3 -0.12 -0.3 -0.3 l0 -13.4 c0 -0.18 0.12 -0.3 0.3 -0.3 l1.27 0 c0.18 0 0.3 0.12 0.3 0.3 l0 12 l6.88 0 z M214.53750000000002 20.26 c-3.96 0 -7.17 -3.2 -7.17 -7.2 c0 -4.02 3.21 -7.22 7.17 -7.22 c3.95 0 7.16 3.2 7.16 7.22 c0 4 -3.21 7.2 -7.16 7.2 z M214.53750000000002 18.49 c2.97 0 5.32 -2.4 5.32 -5.43 c0 -3.05 -2.35 -5.45 -5.32 -5.45 c-2.98 0 -5.33 2.4 -5.33 5.45 c0 3.03 2.35 5.43 5.33 5.43 z M230.83800000000002 6 c3.69 0 5.04 1.56 5.04 4.39 c0 2.84 -1.35 4.4 -5.04 4.4 l-3.39 0 l0 4.91 c0 0.18 -0.12 0.3 -0.3 0.3 l-1.27 0 c-0.18 0 -0.3 -0.12 -0.3 -0.3 l0 -13.4 c0 -0.18 0.12 -0.3 0.3 -0.3 l4.96 0 z M230.96800000000002 13.09 c1.86 0 3.1 -0.5 3.1 -2.7 c0 -2.19 -1.24 -2.69 -3.1 -2.69 l-3.52 0 l0 5.39 l3.52 0 z M248.25850000000003 18.3 c0.18 0 0.3 0.12 0.3 0.3 l0 1.1 c0 0.18 -0.12 0.3 -0.3 0.3 l-8.55 0 c-0.18 0 -0.3 -0.12 -0.3 -0.3 l0 -13.4 c0 -0.18 0.12 -0.3 0.3 -0.3 l8.53 0 c0.18 0 0.3 0.12 0.3 0.3 l0 1.1 c0 0.18 -0.12 0.3 -0.3 0.3 l-6.96 0 l0 4.15 l6.43 0 c0.18 0 0.3 0.12 0.3 0.3 l0 1.1 c0 0.18 -0.12 0.3 -0.3 0.3 l-6.43 0 l0 4.75 l6.98 0 z M259.829 14.57 l2.68 5.08 c0.11 0.21 0.01 0.35 -0.22 0.35 l-1.32 0 c-0.16 0 -0.27 -0.07 -0.35 -0.22 l-2.58 -4.99 l-0.29 0 l-3.39 0 l0 4.91 c0 0.18 -0.12 0.3 -0.3 0.3 l-1.27 0 c-0.18 0 -0.3 -0.12 -0.3 -0.3 l0 -13.4 c0 -0.18 0.12 -0.3 0.3 -0.3 l4.96 0 c3.69 0 5.04 1.56 5.04 4.39 c0 2.22 -0.83 3.66 -2.96 4.18 z M254.359 7.699999999999999 l0 5.39 l3.52 0 c1.86 0 3.1 -0.5 3.1 -2.7 c0 -2.19 -1.24 -2.69 -3.1 -2.69 l-3.52 0 z"></path></g></svg>