<svg width="396" height="191.737" viewBox="0 0 150 72.628" xmlns="http://www.w3.org/2000/svg"  class="looka-1j8o68f"><path d="M4.74 6.623V30.26h41.987v14.218H0v-4.74h42.048V35H0V1.883h14.219v23.698h-4.74V6.623zm93.684-4.74v14.219H66.16v4.74h23.94v4.739H61.42V11.362h32.266v-4.74H56.68V39.74h37.005v-4.74H61.419v-4.74h37.005v14.22H51.94V1.882zM126.85 0C139.61 0 150 10.39 150 23.21s-10.39 23.15-23.15 23.15c-12.822 0-23.212-10.329-23.212-23.15S114.028 0 126.849 0m0 41.683c10.208 0 18.472-8.264 18.472-18.472S137.057 4.678 126.85 4.678c-10.269 0-18.533 8.325-18.533 18.533s8.264 18.472 18.533 18.472m0-32.326c7.596 0 13.794 6.259 13.794 13.854s-6.198 13.793-13.794 13.793-13.854-6.198-13.854-13.793 6.259-13.854 13.854-13.854m0 22.969a9.1 9.1 0 0 0 9.115-9.115c0-5.104-4.071-9.175-9.115-9.175a9.13 9.13 0 0 0-9.175 9.175c0 5.043 4.071 9.115 9.175 9.115M19.183 66.074c.083 0 .138.055.138.138v.505c0 .083-.055.138-.138.138H15.86v1.967h3.111c.083 0 .138.055.138.138v.506c0 .082-.055.137-.138.137H15.86v2.767c0 .083-.055.138-.138.138h-.584c-.083 0-.138-.055-.138-.138v-6.158c0-.083.055-.138.138-.138zm5.272 3.939 1.231 2.334c.05.097.005.161-.1.161h-.608q-.108.001-.16-.1l-1.186-2.294H21.94v2.256c0 .083-.055.138-.137.138h-.584c-.083 0-.138-.055-.138-.138v-6.158c0-.083.055-.138.138-.138h2.28c1.695 0 2.316.717 2.316 2.017 0 1.02-.382 1.683-1.36 1.922m-2.515-3.158v2.477h1.618c.855 0 1.425-.23 1.425-1.24 0-1.007-.57-1.237-1.425-1.237zm8.632 5.773a3.295 3.295 0 0 1-3.295-3.31A3.297 3.297 0 0 1 30.572 66c1.816 0 3.291 1.47 3.291 3.319a3.294 3.294 0 0 1-3.29 3.309m0-.814c1.364 0 2.445-1.103 2.445-2.495 0-1.402-1.08-2.505-2.446-2.505-1.37 0-2.45 1.103-2.45 2.505 0 1.392 1.08 2.495 2.45 2.495m9.79-5.74c.083 0 .138.055.138.138v6.158c0 .074-.046.129-.115.138h-.754c-.073 0-.128-.027-.165-.092l-2.96-5.074v5.028c0 .083-.055.138-.138.138h-.584c-.082 0-.138-.055-.138-.138v-6.158c0-.079.046-.13.12-.138h.75c.073 0 .128.027.165.092l2.96 5.07v-5.024c0-.083.055-.138.137-.138zm6.61 0c.082 0 .138.055.138.138v.505c0 .083-.056.138-.138.138h-1.926v5.515c0 .083-.055.138-.138.138h-.584c-.082 0-.138-.055-.138-.138v-5.515h-1.925c-.083 0-.138-.055-.138-.138v-.505c0-.083.055-.138.138-.138zm6.08 3.497c.083 0 .138.055.138.138v.428c0 .082-.055.137-.138.137h-4.32c-.083 0-.138-.055-.138-.137v-.428c0-.083.055-.138.138-.138zm6.036 2.156c.082 0 .137.055.137.138v.505c0 .083-.055.138-.137.138h-3.93c-.083 0-.138-.055-.138-.138v-6.158c0-.083.055-.138.138-.138h3.92c.083 0 .138.055.138.138v.505c0 .083-.055.138-.138.138H55.88v1.907h2.956c.082 0 .138.056.138.138v.506c0 .083-.056.138-.138.138h-2.956v2.183zm6.66-5.653c.082 0 .137.055.137.138v6.158c0 .074-.046.129-.115.138h-.754c-.073 0-.128-.027-.165-.092l-2.96-5.074v5.028c0 .083-.055.138-.138.138h-.583c-.083 0-.138-.055-.138-.138v-6.158c0-.079.046-.13.12-.138h.748c.074 0 .129.027.166.092l2.96 5.07v-5.024c0-.083.055-.138.138-.138zm3.782 0c2.23 0 3.37 1.401 3.37 3.217 0 1.81-1.14 3.217-3.37 3.217h-1.54c-.082 0-.137-.055-.137-.138v-6.158c0-.083.055-.138.138-.138zm0 5.653c1.669 0 2.496-.924 2.496-2.436 0-1.517-.827-2.436-2.496-2.436h-.818v4.872zm10.66-5.653c2.228 0 3.368 1.401 3.368 3.217 0 1.81-1.14 3.217-3.369 3.217h-1.54c-.082 0-.137-.055-.137-.138v-6.158c0-.083.055-.138.137-.138zm0 5.653c1.668 0 2.495-.924 2.495-2.436 0-1.517-.827-2.436-2.496-2.436h-.818v4.872zm9.058 0c.083 0 .138.055.138.138v.505c0 .083-.055.138-.138.138h-3.93c-.082 0-.138-.055-.138-.138v-6.158c0-.083.056-.138.138-.138h3.92c.084 0 .139.055.139.138v.505c0 .083-.055.138-.138.138H86.04v1.907h2.955c.083 0 .138.056.138.138v.506c0 .083-.055.138-.138.138H86.04v2.183zm6.242-5.543c.032-.083.083-.11.156-.11h.593c.101 0 .147.064.11.156l-2.334 6.168a.17.17 0 0 1-.166.11h-.579a.17.17 0 0 1-.165-.11L90.77 66.23c-.037-.092.009-.156.11-.156h.593c.074 0 .124.027.156.11l1.93 5.249zm6.471 5.543c.083 0 .138.055.138.138v.505c0 .083-.055.138-.138.138h-3.93c-.082 0-.137-.055-.137-.138v-6.158c0-.083.055-.138.138-.138h3.92c.083 0 .138.055.138.138v.505c0 .083-.055.138-.138.138h-3.199v1.907h2.956c.082 0 .137.056.137.138v.506c0 .083-.055.138-.137.138h-2.956v2.183zm5.967 0c.082 0 .137.055.137.138v.505c0 .083-.055.138-.137.138h-3.884c-.083 0-.138-.055-.138-.138v-6.158c0-.083.055-.138.138-.138h.584c.082 0 .137.055.137.138v5.515zm4.894.9a3.295 3.295 0 0 1-3.295-3.308A3.297 3.297 0 0 1 112.822 66c1.816 0 3.291 1.47 3.291 3.319a3.294 3.294 0 0 1-3.29 3.309m0-.814c1.364 0 2.444-1.103 2.444-2.495 0-1.402-1.08-2.505-2.445-2.505-1.37 0-2.45 1.103-2.45 2.505 0 1.392 1.08 2.495 2.45 2.495m7.493-5.74c1.696 0 2.316.717 2.316 2.017 0 1.306-.62 2.023-2.316 2.023h-1.558v2.256c0 .083-.055.138-.138.138h-.584c-.082 0-.138-.055-.138-.138v-6.158c0-.083.056-.138.138-.138zm.06 3.258c.855 0 1.424-.23 1.424-1.24 0-1.007-.57-1.237-1.424-1.237h-1.618v2.477zm7.946 2.395c.083 0 .138.055.138.138v.505c0 .083-.055.138-.138.138h-3.93c-.082 0-.137-.055-.137-.138v-6.158c0-.083.055-.138.138-.138h3.92c.083 0 .138.055.138.138v.505c0 .083-.055.138-.138.138h-3.199v1.907h2.956c.082 0 .137.056.137.138v.506c0 .083-.055.138-.137.138h-2.956v2.183zm5.318-1.714 1.232 2.334c.05.097.005.161-.1.161h-.608q-.108.001-.16-.1l-1.186-2.294h-1.692v2.256c0 .083-.055.138-.137.138h-.584c-.083 0-.138-.055-.138-.138v-6.158c0-.083.055-.138.138-.138h2.28c1.695 0 2.316.717 2.316 2.017 0 1.02-.382 1.683-1.36 1.922m-2.515-3.158v2.477h1.618c.855 0 1.425-.23 1.425-1.24 0-1.007-.57-1.237-1.425-1.237z" fill="#111"/></svg>